<svg xmlns="http://www.w3.org/2000/svg" width="150" height="100" xmlns:v="https://vecta.io/nano"><path d="M139.145 100H10.855C4.869 100 0 95.16 0 89.217V10.785C0 4.838 4.869 0 10.855 0h128.289C145.129 0 150 4.838 150 10.785v78.432C150 95.16 145.129 100 139.145 100zM10.855 1.961c-4.898 0-8.883 3.959-8.883 8.824v78.432c0 4.864 3.984 8.822 8.883 8.822h128.289c4.896 0 8.881-3.958 8.881-8.822V10.785c0-4.865-3.984-8.824-8.881-8.824H10.855zm12.094 18.364h15.998v21.356h15.998V20.325h15.996v59.35H54.945V56.719H38.947v22.956H22.949v-59.35zm53.949 0h27.195c13.758 0 22.957 5.759 22.957 26.876 0 19.196-8.879 32.474-27.996 32.474H76.898v-59.35zm15.518 45.273h8.639c9.438 0 10.957-11.277 10.957-16.396 0-6-.879-14.318-10.238-14.318h-9.357v30.714z"/></svg>