<svg xmlns="http://www.w3.org/2000/svg" width="150" height="100" xmlns:v="https://vecta.io/nano"><path d="M139.145 1.961H10.855c-4.898 0-8.883 3.959-8.883 8.824v78.432c0 4.864 3.984 8.822 8.883 8.822h128.289c4.896 0 8.881-3.958 8.881-8.822V10.785c0-4.865-3.984-8.824-8.88-8.824zM70.941 79.675H54.945V56.719H38.947v22.956H22.949v-59.35h15.998v21.356h15.998V20.325h15.996v59.35zm28.114 0H76.898v-59.35h27.195c13.758 0 22.957 5.759 22.957 26.876.001 19.196-8.878 32.474-27.995 32.474zm2.718-44.792h-9.357v30.715h8.639c9.438 0 10.957-11.277 10.957-16.396 0-6.001-.879-14.319-10.239-14.319z"/></svg>