<svg xmlns="http://www.w3.org/2000/svg" width="140.232" height="150.97" xmlns:v="https://vecta.io/nano" fill="#f1f1f1"><path d="M10.427 107.922l-1.967-4.693-1.804-5.522-1.583-7.318C4.184 85 3.837 78.611 4.636 71.934c.774-6.673 2.693-13.598 5.692-19.94 2.978-6.356 7.021-12.092 11.478-16.746 4.463-4.655 9.219-8.32 13.611-10.826 4.402-2.487 8.237-4.153 11.018-5.026 1.388-.44 2.444-.859 3.207-1.028l1.158-.285 2.593-.641c.88-.205 1.793-.333 2.702-.524.916-.156 1.82-.427 2.77-.528l2.859-.428c9.132-1.294 17.574-1.102 23.999-.905 3.186.178 5.937.133 7.948.001 2.032-.198 3.421-.751 3.855-1.733s-.139-2.31-1.657-3.911c-1.491-1.663-4.028-3.332-7.403-5.013a76.35 76.35 0 0 0-2.718-1.128c-.958-.361-1.952-.797-3.021-1.061-2.128-.569-4.423-1.261-6.902-1.555C70.889-.209 65.312-.191 59.566.55l-3.583.607c-1.182.185-2.31.564-3.438.85-1.12.32-2.233.599-3.298.972l-3.107 1.2-1.375.533c-.9.333-2.157.994-3.778 1.75-3.244 1.501-7.676 4.101-12.534 7.732-4.854 3.649-9.9 8.653-14.347 14.634A72.13 72.13 0 0 0 3.501 49.316a70.67 70.67 0 0 0-3.5 22.371 69.77 69.77 0 0 0 2.836 19.212c.719 2.735 1.745 5.121 2.54 7.254.924 2.088 1.797 3.872 2.507 5.334l2.543 4.435zm119.378-64.875l1.967 4.693 1.804 5.522 1.583 7.318c.889 5.389 1.235 11.778.437 18.455-.774 6.673-2.693 13.598-5.692 19.94-2.978 6.356-7.021 12.092-11.478 16.746-4.463 4.655-9.219 8.32-13.611 10.826-4.402 2.487-8.237 4.153-11.018 5.026-1.388.44-2.444.859-3.207 1.028l-1.158.285-2.593.641c-.88.205-1.793.333-2.702.524-.916.156-1.82.427-2.77.528l-2.859.428c-9.132 1.294-17.574 1.102-23.999.905-3.186-.178-5.937-.133-7.948-.001-2.032.198-3.421.751-3.855 1.733s.139 2.31 1.657 3.911c1.491 1.663 4.028 3.332 7.402 5.013a79.04 79.04 0 0 0 2.718 1.129c.958.361 1.952.796 3.021 1.061 2.128.569 4.423 1.261 6.902 1.555 4.935.867 10.513.849 16.258.107l3.583-.607c1.182-.185 2.31-.564 3.438-.85 1.12-.32 2.233-.599 3.298-.972l3.107-1.2 1.375-.533c.9-.333 2.157-.994 3.778-1.75 3.244-1.501 7.676-4.101 12.534-7.732 4.854-3.649 9.9-8.653 14.347-14.634a72.13 72.13 0 0 0 10.605-20.488 70.67 70.67 0 0 0 3.5-22.371 69.77 69.77 0 0 0-2.836-19.212c-.719-2.735-1.745-5.121-2.54-7.254-.924-2.088-1.797-3.872-2.507-5.334l-2.541-4.436z"/><circle cx="70.116" cy="75.485" r="20"/></svg>